HIERARCHY
ROOT Hips
{
	OFFSET	0.00	0.00	0.00
	CHANNELS 6 Xposition Yposition Zposition Zrotation Xrotation Yrotation
	JOINT LeftHip
	{
		OFFSET	 3.430000	 0.000000	 0.000000
		CHANNELS 3 Zrotation Xrotation Yrotation
		JOINT LeftKnee
		{
			OFFSET	 0.000000	-18.469999	 0.000000
			CHANNELS 3 Zrotation Xrotation Yrotation
			JOINT LeftAnkle
			{
				OFFSET	 0.000000	-17.950001	 0.000000
				CHANNELS 3 Zrotation Xrotation Yrotation
				End Site 
				{
					OFFSET	 0.000000	-3.119996	 0.000000
				}
			}
		}
	}
	JOINT RightHip
	{
		OFFSET	-3.430000	 0.000000	 0.000000
		CHANNELS 3 Zrotation Xrotation Yrotation
		JOINT RightKnee
		{
			OFFSET	 0.000000	-18.809999	 0.000000
			CHANNELS 3 Zrotation Xrotation Yrotation
			JOINT RightAnkle
			{
				OFFSET	 0.000000	-17.570000	 0.000000
				CHANNELS 3 Zrotation Xrotation Yrotation
				End Site 
				{
					OFFSET	 0.000000	-3.250000	 0.000000
				}
			}
		}
	}
	JOINT Chest
	{
		OFFSET	 0.000000	 4.570000	 0.000000
		CHANNELS 3 Zrotation Xrotation Yrotation
		JOINT LeftCollar
		{
			OFFSET	 1.060000	 15.330000	 1.760000
			CHANNELS 3 Zrotation Xrotation Yrotation
			JOINT LeftShoulder
			{
				OFFSET	 5.810000	 0.000000	 0.000000
				CHANNELS 3 Zrotation Xrotation Yrotation
				JOINT LeftElbow
				{
					OFFSET	 0.000000	-12.080000	 0.000000
					CHANNELS 3 Zrotation Xrotation Yrotation
					JOINT LeftWrist
					{
						OFFSET	 0.000000	-9.820000	 0.000000
						CHANNELS 3 Zrotation Xrotation Yrotation
						End Site 
						{
							OFFSET	 0.000000	-7.369996	 0.000000
						}
					}
				}
			}
		}
		JOINT RightCollar
		{
			OFFSET	-1.060000	 15.330000	 1.760000
			CHANNELS 3 Zrotation Xrotation Yrotation
			JOINT RightShoulder
			{
				OFFSET	-6.060000	 0.000000	 0.000000
				CHANNELS 3 Zrotation Xrotation Yrotation
				JOINT RightElbow
				{
					OFFSET	 0.000000	-11.900000	 0.000000
					CHANNELS 3 Zrotation Xrotation Yrotation
					JOINT RightWrist
					{
						OFFSET	 0.000000	-9.520000	 0.000000
						CHANNELS 3 Zrotation Xrotation Yrotation
						End Site 
						{
							OFFSET	 0.000000	-7.140012	 0.000000
						}
					}
				}
			}
		}
		JOINT Neck
		{
			OFFSET	 0.000000	 17.620001	 0.000000
			CHANNELS 3 Zrotation Xrotation Yrotation
			JOINT Head
			{
				OFFSET	 0.000000	 5.190000	 0.000000
				CHANNELS 3 Zrotation Xrotation Yrotation
				End Site 
				{
					OFFSET	 0.000000	 4.140008	 0.000000
				}
			}
		}
	}
}

MOTION
Frames: 25
Frame Time: 0.033333
-30.0737 -1.228 -47.033 12.4546 -3.96226 73.8477 33.9366 -9.99805 19.1136 -2.49202 21.6979 6.04451 -10.2724 11.2886 5.25066 -17.5076 2.48616 -24.2022 -4.86602 42.6039 2.3901 13.4487 -23.2262 8.48863 6.05883 10.479 -3.21009 0 0 0 110.167 -20.1152 119.561 -108.923 -47.751 -76.8178 -23.4608 -22.3664 2.23167 0 0 0 -121.748 19.2854 -75.9994 93.3463 -61.3726 80.1359 -25.3161 -26.0623 4.68399 0 0 0 -0.755656 13.2291 27.0295 
-30.7266 -1.4314 -46.5784 12.4491 -3.59896 73.0295 34.2183 -9.87737 19.1599 -2.41719 19.6631 5.98996 -9.05863 11.3452 4.83 -16.5031 1.45188 -24.2959 -4.29462 42.7893 2.31259 10.8744 -26.7041 6.98563 5.49783 11.2024 -2.963 0 0 0 113.034 -13.8238 126.79 -110.622 -47.5177 -77.7807 -23.6922 -22.8379 3.29734 0 0 0 -123.544 22.3143 -86.9179 96.5622 -61.3946 82.7657 -25.2138 -26.0512 5.49516 0 0 0 -0.364061 13.1198 27.7613 
-31.4372 -1.6097 -46.1214 12.983 -3.39293 72.9655 34.6646 -10.0274 19.3105 -2.44336 18.2548 5.4805 -7.80267 10.6157 3.92233 -15.629 0.903274 -24.622 -4.13086 42.8235 2.58954 8.93148 -28.7164 5.71924 5.15264 12.7322 -2.89853 0 0 0 114.562 -12.772 131.456 -107.255 -48.4171 -75.1781 -24.7442 -23.7574 3.30428 0 0 0 -122.449 22.7879 -99.0625 97.0835 -61.6907 83.0964 -24.3017 -26.2074 6.56165 0 0 0 0.137817 12.0505 27.9961 
-32.2032 -1.7553 -45.6769 13.6713 -3.19386 73.1021 35.0558 -10.6738 18.9988 -2.58 17.6147 5.20056 -6.50443 9.30951 3.00431 -14.9631 0.602685 -24.9103 -3.87722 42.8905 2.76673 7.15036 -29.9086 4.65171 4.80627 14.397 -2.87527 0 0 0 116.097 -13.6577 134.492 -100.569 -49.8952 -70.3037 -25.4397 -23.4614 3.60683 0 0 0 -121.629 17.5649 -111.259 93.3751 -61.9958 79.0892 -23.5203 -26.3092 7.66291 0 0 0 0.720467 10.6258 28.2126 
-32.9439 -1.8432 -45.245 14.4906 -3.06735 73.4974 35.2198 -11.6453 18.1636 -2.77002 17.5466 5.21938 -5.41505 7.76937 2.13571 -14.2646 0.62163 -25.3747 -3.56608 42.6091 2.89925 5.3333 -30.6369 3.61226 4.58278 16.0843 -3.017 0 0 0 118.248 -15.6394 136.222 -87.6766 -51.5692 -60.48 -26.5289 -23.4088 3.442 0 0 0 -123.338 7.42144 -119.66 83.6149 -62.9459 70.2541 -22.6644 -25.8681 8.53561 0 0 0 1.20906 9.17248 28.492 
-33.6596 -1.7327 -44.8708 15.4448 -2.97969 74.0479 34.6114 -11.8933 17.1156 -2.90906 17.8363 5.43433 -5.05677 6.90426 1.43279 -13.7005 1.06438 -26.0989 -3.48225 41.7075 2.98807 4.00966 -30.072 2.94776 4.54782 17.5737 -3.02301 0 0 0 119.073 -20.0379 133.188 -69.3695 -51.1344 -45.9261 -27.8058 -22.7025 0.827844 0 0 0 -125.064 -0.615615 -120.255 64.1673 -61.9304 52.8339 -23.076 -26.8331 8.51645 0 0 0 1.44223 8.34901 28.5111 
-34.2548 -1.6021 -44.5945 16.3654 -2.95272 74.5306 33.8963 -12.0646 15.9816 -3.00129 18.4139 5.88605 -5.12161 6.13269 0.988457 -13.1405 1.57921 -26.277 -3.28288 40.4771 2.84498 2.89765 -29.0674 2.22529 4.56846 18.8719 -2.98552 0 0 0 118.977 -23.7486 129.357 -52.454 -48.0456 -32.0353 -29.3131 -22.1265 -1.74235 0 0 0 -125.864 -7.66588 -117.478 47.3292 -58.0455 37.6162 -23.1713 -27.6516 8.68278 0 0 0 1.55478 7.66314 28.6128 
-34.8298 -1.2556 -44.3258 17.1858 -2.83688 74.9592 32.6759 -11.5369 15.5234 -3.18411 20.1746 6.1927 -5.0001 5.3833 -0.071415 -12.5471 2.41227 -25.9244 -2.81177 38.5429 2.2323 2.0338 -27.6465 1.39951 4.61811 19.9376 -3.07751 0 0 0 118.124 -26.3761 124.794 -41.73 -45.1329 -22.3626 -30.8308 -21.0393 -4.02664 0 0 0 -125.501 -14.0086 -111.525 36.6713 -53.6458 27.681 -22.5196 -28.4062 9.24086 0 0 0 1.27461 7.74406 28.885 
-35.3471 -0.8689 -44.1074 17.7973 -2.74061 75.2992 31.241 -10.8128 15.3136 -3.33806 22.2405 6.32713 -5.16146 5.14398 -0.64068 -12.1628 3.11021 -25.8865 -2.47919 36.3342 1.70297 1.50302 -25.8369 1.12885 4.76755 20.6369 -3.11624 0 0 0 116.834 -27.3978 121.296 -35.4486 -43.0875 -16.7915 -31.8159 -19.4751 -5.45136 0 0 0 -124.653 -15.1477 -105.739 30.4655 -49.2059 21.2993 -21.4322 -28.44 10.4249 0 0 0 0.842501 8.04496 29.1813 
-35.7589 -0.4445 -43.9592 17.9783 -2.70786 75.4964 29.9663 -9.91896 15.4512 -3.50173 24.5031 6.36038 -5.58394 5.16987 -1.20018 -11.7734 3.41604 -25.8216 -2.10148 34.2276 1.01379 1.17476 -24.054 1.11241 5.09681 20.918 -3.05716 0 0 0 115.992 -27.0463 119.452 -33.6887 -42.3943 -14.979 -32.1494 -17.5434 -6.54904 0 0 0 -123.984 -13.9941 -101.708 27.0241 -46.015 17.6745 -20.149 -28.8189 11.6256 0 0 0 0.271327 8.48193 29.428 
-36.1356 -0.0577 -43.8487 17.9452 -2.81382 75.5638 28.8092 -8.51645 16.1023 -3.6125 26.8776 5.9756 -6.24385 4.90406 -2.05493 -11.2472 3.37266 -25.6 -1.83425 32.3637 0.42135 0.858322 -22.3599 1.02724 5.56586 20.9229 -2.87502 0 0 0 115.349 -26.2547 118.701 -34.4249 -42.9388 -15.3045 -33.1664 -16.7018 -8.13486 0 0 0 -123.189 -12.2429 -99.2736 26.0121 -45.6907 16.6918 -18.4702 -29.1679 13.2519 0 0 0 -0.349949 9.19124 29.5793 
-36.5148 0.2687 -43.7809 17.7775 -3.02486 75.4582 27.5301 -6.74905 16.4844 -3.79282 29.3083 5.67587 -6.95177 4.33633 -2.88115 -10.663 3.03639 -25.0953 -1.65739 30.982 -0.194091 0.624717 -20.971 0.923153 6.04651 20.8198 -2.53128 0 0 0 114.536 -25.0332 119.08 -38.7797 -45.0419 -18.7443 -33.9372 -15.9434 -9.22945 0 0 0 -122.266 -11.0838 -98.1684 28.0661 -47.8244 18.3627 -16.5743 -29.8892 15.4943 0 0 0 -0.814016 9.76818 29.6232 
-36.8161 0.437 -43.7432 17.5427 -3.32399 75.2413 26.7819 -5.42887 16.5326 -4.10649 32.4567 5.07138 -7.57241 2.07351 -3.27415 -10.0748 2.51866 -24.6041 -1.39942 30.2149 -0.484411 0.178411 -20.0413 0.584495 6.45687 20.8794 -2.22733 0 0 0 114.289 -23.6685 121.17 -45.6459 -47.762 -24.5246 -34.9359 -15.5415 -9.43516 0 0 0 -121.417 -10.4758 -99.8526 35.1059 -51.7922 24.0314 -14.1188 -29.7858 18.227 0 0 0 -1.07179 9.54847 29.6596 
-37.1702 0.5424 -43.7056 17.5797 -3.71263 75.1187 25.6498 -3.58762 15.995 -4.52102 35.7663 4.71141 -8.71971 -0.391133 -4.2274 -9.53352 2.01516 -24.1287 -1.19867 29.9154 -0.794457 -0.264869 -19.2778 0.262096 6.95106 20.9466 -2.13302 0 0 0 114.393 -22.9972 122.329 -48.8162 -48.585 -27.5403 -35.255 -14.523 -9.69151 0 0 0 -120.896 -10.4259 -101.101 40.5431 -54.0884 28.4763 -12.0894 -29.5494 20.3146 0 0 0 -1.34674 9.55985 29.5647 
-37.4941 0.4721 -43.7156 18.0592 -4.19045 75.0451 24.635 -1.57547 14.3663 -4.77373 38.0236 4.53403 -10.653 -2.62949 -5.21461 -9.16106 1.82271 -23.9371 -1.08627 30.2054 -0.83046 -0.734329 -18.8853 0.00454465 7.41269 21.2712 -2.19457 0 0 0 115.185 -23.2431 123.039 -45.4887 -46.4781 -26.0947 -35.4403 -14.0875 -10.3916 0 0 0 -121.154 -10.2812 -102.879 41.0233 -53.4356 28.9916 -10.7477 -28.8926 21.6068 0 0 0 -1.29865 9.44556 29.2231 
-37.8281 0.3516 -43.7483 19.1216 -4.66668 75.0338 23.2091 0.953655 12.0397 -5.0658 39.7148 4.70385 -12.7963 -4.62449 -6.83034 -8.81564 2.28998 -23.3549 -1.00139 30.2897 -0.889195 -1.16189 -18.3724 -0.624956 7.67877 21.905 -2.42906 0 0 0 116.411 -25.1768 122.417 -37.6458 -42.1618 -21.1323 -35.7678 -14.0835 -11.9362 0 0 0 -121.556 -12.3501 -103.699 36.3733 -50.3394 25.2009 -10.103 -29.5146 22.0052 0 0 0 -1.14403 9.76611 28.6575 
-38.142 0.2411 -43.8186 20.3954 -5.05122 75.1897 21.2878 3.87028 9.37397 -5.05669 40.4844 4.78039 -14.8405 -6.41874 -8.40889 -8.47212 3.21785 -22.5737 -1.01083 29.8098 -0.814592 -1.50669 -17.6142 -1.58251 7.75061 22.6058 -2.73117 0 0 0 117.482 -28.7496 120.435 -28.9585 -36.6614 -15.6321 -35.7383 -13.6049 -13.5078 0 0 0 -121.562 -16.5318 -103.215 29.7802 -45.776 19.896 -10.0383 -29.8288 21.8102 0 0 0 -0.865218 10.3354 27.9286 
-38.4509 0.1482 -43.9065 21.7379 -5.31109 75.6047 19.407 6.68928 6.63678 -5.02167 40.4081 5.06367 -16.7944 -7.68686 -9.50701 -8.21556 4.4648 -21.7959 -1.03264 28.8198 -0.802275 -1.68232 -16.94 -2.40532 7.71409 23.428 -3.12592 0 0 0 117.805 -32.9337 117.401 -21.3061 -30.1725 -10.5559 -35.0218 -13.2262 -14.9424 0 0 0 -121.134 -21.5186 -100.383 22.9935 -39.6047 14.458 -10.327 -30.2671 21.0249 0 0 0 -0.504566 10.8087 27.0752 
-38.7196 0.1356 -44.0245 22.891 -5.49428 76.2799 17.9947 9.13257 4.4405 -4.91432 39.5845 5.01567 -18.383 -8.74389 -10.5515 -7.97901 5.81212 -21.1039 -0.966279 27.3773 -0.854626 -1.57133 -16.3935 -3.28592 7.69294 24.3097 -3.57581 0 0 0 117.155 -37.5623 113.134 -15.4118 -23.4125 -6.08091 -34.3311 -12.6968 -16.6424 0 0 0 -119.431 -26.298 -95.1005 17.0124 -32.8347 9.69177 -10.8208 -30.8832 19.8994 0 0 0 -0.0654746 11.2581 26.0796 
-39.0385 0.2335 -44.2154 23.5936 -5.58254 77.0402 16.6226 11.0328 2.87101 -4.70423 37.618 5.29698 -19.5518 -8.90446 -11.7872 -7.81654 6.72876 -20.5755 -1.07378 25.6795 -1.04303 -1.06535 -15.8107 -3.83323 7.71312 24.8904 -3.9532 0 0 0 114.904 -42.1716 107.44 -11.2734 -17.2147 -2.59387 -33.0672 -11.9724 -17.7353 0 0 0 -116.234 -29.6348 -87.9245 12.5692 -26.5912 6.05131 -10.8969 -31.1019 19.2655 0 0 0 0.547297 11.6117 24.9637 
-39.3374 0.4018 -44.4313 23.8855 -5.62667 77.6156 15.3264 12.5318 2.17074 -4.09249 34.8955 5.03372 -19.8914 -8.97966 -12.5484 -7.74751 7.28949 -20.2712 -1.18669 23.8792 -1.17772 -0.337913 -15.2056 -4.24735 7.68277 25.4582 -4.03495 0 0 0 111 -46.4576 101.48 -9.6928 -13.5177 -1.18061 -32.0957 -11.7889 -18.3797 0 0 0 -111.877 -31.544 -80.7969 10.0364 -22.1789 3.87392 -10.7681 -31.4674 19.0058 0 0 0 1.26385 11.5625 23.804 
-39.6487 0.5801 -44.6523 23.6698 -5.65118 78.0019 14.1308 13.2745 1.93502 -3.64272 31.8968 4.66245 -19.3303 -9.167 -12.5069 -7.68646 7.08484 -20.1524 -1.311 22.3422 -1.2307 0.42478 -14.6547 -4.52024 7.72004 25.5172 -3.93417 0 0 0 104.753 -50.4948 94.2845 -9.23907 -11.7532 -1.1303 -30.8585 -11.8998 -18.4001 0 0 0 -106.487 -32.6353 -73.7512 8.89086 -19.7704 2.88817 -10.526 -32.1472 18.9415 0 0 0 1.83825 11.1635 22.7122 
-39.9953 0.8061 -44.9135 22.9412 -5.63712 78.0154 13.0152 13.4994 2.15486 -3.30555 28.6382 4.04104 -18.0918 -9.2806 -11.3408 -7.66016 6.03279 -20.0018 -1.36594 21.3054 -1.31445 1.10681 -14.3369 -4.57239 7.90027 25.2746 -3.57169 0 0 0 96.7333 -53.7411 86.2661 -9.98959 -12.0398 -1.96381 -29.8059 -11.8199 -17.6949 0 0 0 -100.568 -33.2065 -67.5439 8.79144 -19.6543 2.87418 -10.0783 -32.0921 18.7996 0 0 0 2.2266 10.3382 21.7168 
-40.3594 0.9769 -45.1621 22.3664 -5.73592 77.7944 12.2544 13.4596 2.41589 -3.294 25.7505 3.72984 -16.7587 -9.27615 -9.82959 -7.89325 4.78245 -20.2956 -1.35157 20.8618 -1.37806 1.99186 -14.3182 -3.85388 8.18234 25.3773 -3.11814 0 0 0 87.3195 -56.1114 77.334 -11.708 -13.3388 -3.29149 -28.5292 -12.3626 -16.4595 0 0 0 -94.9057 -33.469 -62.8477 9.71436 -20.508 3.64179 -9.52479 -31.9006 18.4077 0 0 0 2.50835 9.09671 20.8048 
-40.7361 1.1928 -45.4509 21.7942 -5.92089 77.2012 11.5196 13.5423 2.6991 -3.32432 22.8523 3.54192 -15.3633 -9.08816 -8.13176 -8.45007 3.44556 -21.3753 -1.38285 20.645 -1.29839 3.75922 -14.14 -2.66294 8.47047 26.1389 -2.80552 0 0 0 75.9727 -57.0563 66.4538 -13.722 -15.4919 -4.82603 -27.6645 -12.571 -14.7888 0 0 0 -88.4126 -34.122 -58.178 10.5132 -21.9106 4.50727 -8.82948 -31.7928 18.2115 0 0 0 2.81813 7.44859 20.2232 
